<svg version="1.2" xmlns="http://www.w3.org/2000/svg" viewBox="0 0 1080 1080" width="54" height="54">
	<title>bee logo timer</title>
	<style>
		.s0 { fill: #e9ab17 } 
		.s1 { fill: #101010 } 
		.s2 { fill: #c6dcf0 } 
		.s3 { opacity: .2;fill: #101010 } 
	</style>
	<g id="Main">
		<path id="Shape 7 copy" fill-rule="evenodd" class="s0" d="m734.6 432.2v321.2h-319.6v-321.2z"/>
		<path id="Shape 5" fill-rule="evenodd" class="s0" d="m744.5 510.4v121.1h-427.5v-121.1z"/>
		<path id="Shape 7 copy 2" fill-rule="evenodd" class="s0" d="m686.8 290.5v112.9h-278.4v-112.9z"/>
		<path id="Shape 2 copy 137" fill-rule="evenodd" class="s0" d="m379.2 682.4v35.6h-35.7v-35.6z"/>
		<path id="Shape 4" fill-rule="evenodd" class="s0" d="m485.8 682.5v72.3h-141.2v-72.3z"/>
		<path id="Shape 7" fill-rule="evenodd" class="s0" d="m603.6 246.8v66.8h-126.8v-66.8z"/>
	</g>
	<g id="Bee Black - left">
		<path id="Shape 2 copy 10" fill-rule="evenodd" class="s1" d="m486.3 219.3v35.6h-35.7v-35.6z"/>
		<path id="Shape 2 copy 11" fill-rule="evenodd" class="s1" d="m521.9 219.3v35.6h-35.6v-35.6z"/>
		<path id="Shape 2 copy 66" fill-rule="evenodd" class="s1" d="m557.5 219.3v35.6h-35.6v-35.6z"/>
		<path id="Shape 2 copy 2" fill-rule="evenodd" class="s1" d="m415 148v35.6h-35.6v-35.6z"/>
		<path id="Shape 2 copy 3" fill-rule="evenodd" class="s1" d="m450.6 148v35.6h-35.6v-35.6z"/>
		<path id="Shape 2 copy 6" fill-rule="evenodd" class="s1" d="m415 290.5v35.6h-35.6v-35.6z"/>
		<path id="Shape 2 copy 7" fill-rule="evenodd" class="s1" d="m450.6 290.5v35.6h-35.6v-35.6z"/>
		<path id="Shape 2 copy 8" fill-rule="evenodd" class="s1" d="m450.6 254.9v35.6h-35.6v-35.6z"/>
		<path id="Shape 2 copy 12" fill-rule="evenodd" class="s1" d="m415 361.8v35.6h-35.6v-35.6z"/>
		<path id="Shape 2 copy 13" fill-rule="evenodd" class="s1" d="m415 326.1v35.7h-35.6v-35.7z"/>
		<path id="Shape 2 copy 22" fill-rule="evenodd" class="s1" d="m165.6 397.4v35.6h-35.6v-35.6z"/>
		<path id="Shape 2 copy 23" fill-rule="evenodd" class="s1" d="m165.6 468.6v35.7h-35.6v-35.7z"/>
		<path id="Shape 2 copy 24" fill-rule="evenodd" class="s1" d="m165.6 433v35.6h-35.6v-35.6z"/>
		<path id="Shape 2 copy 113" fill-rule="evenodd" class="s2" d="m201 397.4v35.6h-35.6v-35.6z"/>
		<path id="Shape 2 copy 114" fill-rule="evenodd" class="s2" d="m201 433v35.6h-35.6v-35.6z"/>
		<path id="Shape 2 copy 115" fill-rule="evenodd" class="s2" d="m201 433v35.6h-35.6v-35.6z"/>
		<path id="Shape 2 copy 9" fill-rule="evenodd" class="s1" d="m486.3 254.9v35.6h-35.7v-35.6z"/>
		<path id="Shape 2 copy 14" fill-rule="evenodd" class="s1" d="m343.8 361.8v35.6h-35.7v-35.6z"/>
		<path id="Shape 2 copy 15" fill-rule="evenodd" class="s1" d="m379.4 361.8v35.6h-35.6v-35.6z"/>
		<path id="Shape 2 copy 122" fill-rule="evenodd" class="s1" d="m343.8 361.8v35.6h-35.7v-35.6z"/>
		<path id="Shape 2 copy 123" fill-rule="evenodd" class="s1" d="m379.4 361.8v35.6h-35.6v-35.6z"/>
		<path id="Shape 2 copy 125" fill-rule="evenodd" class="s2" d="m343.8 397.2v35.6h-35.7v-35.6z"/>
		<path id="Shape 2 copy 126" fill-rule="evenodd" class="s2" d="m379.4 397.2v35.6h-35.6v-35.6z"/>
		<path id="Shape 2 copy 127" fill-rule="evenodd" class="s2" d="m343.8 398v35.6h-35.7v-35.6z"/>
		<path id="Shape 2 copy 128" fill-rule="evenodd" class="s2" d="m379.4 398v35.6h-35.6v-35.6z"/>
		<path id="Shape 2 copy 16" fill-rule="evenodd" class="s1" d="m486.3 397.4v35.6h-35.7v-35.6z"/>
		<path id="Shape 2 copy 31" fill-rule="evenodd" class="s1" d="m521.9 397.4v35.6h-35.6v-35.6z"/>
		<path id="Shape 2 copy 67" fill-rule="evenodd" class="s1" d="m557.5 397.4v35.6h-35.6v-35.6z"/>
		<path id="Shape 2 copy 30" fill-rule="evenodd" class="s3" d="m450.6 361.8v35.6h-35.6v-35.6z"/>
		<path id="Shape 2 copy 17" fill-rule="evenodd" class="s1" d="m415 397.4v35.6h-35.6v-35.6z"/>
		<path id="Shape 2 copy 18" fill-rule="evenodd" class="s1" d="m450.6 397.4v35.6h-35.6v-35.6z"/>
		<path id="Shape 2 copy 49" fill-rule="evenodd" class="s1" d="m415 646.8v35.6h-35.6v-35.6z"/>
		<path id="Shape 2 copy 50" fill-rule="evenodd" class="s1" d="m450.6 646.8v35.6h-35.6v-35.6z"/>
		<path id="Shape 2 copy 55" fill-rule="evenodd" class="s1" d="m486.3 682.4v35.6h-35.7v-35.6z"/>
		<path id="Shape 2 copy 135" fill-rule="evenodd" class="s0" d="m486.3 718.6v35.7h-35.7v-35.7z"/>
		<path id="Shape 2 copy 51" fill-rule="evenodd" class="s1" d="m343.8 646.8v35.6h-35.7v-35.6z"/>
		<path id="Shape 2 copy 52" fill-rule="evenodd" class="s1" d="m379.4 646.8v35.6h-35.6v-35.6z"/>
		<path id="Shape 2 copy 58" fill-rule="evenodd" class="s1" d="m450.6 753.6v35.7h-35.6v-35.7z"/>
		<path id="Shape 2 copy 59" fill-rule="evenodd" class="s1" d="m486.3 753.6v35.7h-35.7v-35.7z"/>
		<path id="Shape 2 copy 116" fill-rule="evenodd" class="s2" d="m201.3 468.6v35.7h-35.7v-35.7z"/>
		<path id="Shape 2 copy 62" fill-rule="evenodd" class="s1" d="m521.9 753.6v35.7h-35.6v-35.7z"/>
		<path id="Shape 2 copy 63" fill-rule="evenodd" class="s1" d="m557.5 753.6v35.7h-35.6v-35.7z"/>
		<path id="Shape 2 copy 64" fill-rule="evenodd" class="s1" d="m521.9 718v35.6h-35.6v-35.6z"/>
		<path id="Shape 2 copy 136" fill-rule="evenodd" class="s0" d="m486.5 718v35.6h-35.7v-35.6z"/>
		<path id="Shape 2 copy 65" fill-rule="evenodd" class="s1" d="m557.5 718v35.6h-35.6v-35.6z"/>
		<path id="Shape 2 copy 60" fill-rule="evenodd" class="s1" d="m379.4 753.6v35.7h-35.6v-35.7z"/>
		<path id="Shape 2 copy 61" fill-rule="evenodd" class="s1" d="m415 753.6v35.7h-35.6v-35.7z"/>
		<path id="Shape 2 copy 88" fill-rule="evenodd" class="s1" d="m450.6 788.9v35.6h-35.6v-35.6z"/>
		<path id="Shape 2 copy 89" fill-rule="evenodd" class="s0" d="m486.3 788.9v35.6h-35.7v-35.6z"/>
		<path id="Shape 2 copy 133" fill-rule="evenodd" class="s3" d="m486.3 788.9v35.6h-35.7v-35.6z"/>
		<path id="Shape 2 copy 90" fill-rule="evenodd" class="s1" d="m415 788.9v35.6h-35.6v-35.6z"/>
		<path id="Shape 2 copy 91" fill-rule="evenodd" class="s1" d="m486.3 824.5v35.6h-35.7v-35.6z"/>
		<path id="Shape 2 copy 92" fill-rule="evenodd" class="s1" d="m521.9 824.5v35.6h-35.6v-35.6z"/>
		<path id="Shape 2 copy 94" fill-rule="evenodd" class="s1" d="m557.5 824.5v35.6h-35.6v-35.6z"/>
		<path id="Shape 2 copy 95" fill-rule="evenodd" class="s1" d="m521.9 860.1v35.7h-35.6v-35.7z"/>
		<path id="Shape 2 copy 96" fill-rule="evenodd" class="s1" d="m557.5 860.1v35.7h-35.6v-35.7z"/>
		<path id="Shape 2 copy 97" fill-rule="evenodd" class="s1" d="m557.5 895.8v35.6h-35.6v-35.6z"/>
		<path id="Shape 2 copy 93" fill-rule="evenodd" class="s1" d="m450.6 824.5v35.6h-35.6v-35.6z"/>
		<path id="Shape 2 copy 53" fill-rule="evenodd" class="s1" d="m343.8 682.4v35.6h-35.7v-35.6z"/>
		<path id="Shape 2 copy 54" fill-rule="evenodd" class="s3" d="m379.4 682.4v35.6h-35.6v-35.6z"/>
		<path id="Shape 2 copy 56" fill-rule="evenodd" class="s1" d="m379.4 718.1l-0.1 35.6-35.6-0.1 0.1-35.6z"/>
		<path id="Shape 2 copy 57" fill-rule="evenodd" class="s3" d="m415 718v35.6h-35.6v-35.6z"/>
		<path id="Shape 2 copy 32" fill-rule="evenodd" class="s1" d="m450.6 433v35.6h-35.6v-35.6z"/>
		<path id="Shape 2 copy 33" fill-rule="evenodd" class="s1" d="m486.3 433v35.6h-35.7v-35.6z"/>
		<path id="Shape 2 copy 34" fill-rule="evenodd" class="s1" d="m379.4 433v35.6h-35.6v-35.6z"/>
		<path id="Shape 2 copy 124" fill-rule="evenodd" class="s1" d="m379.4 433v35.6h-35.6v-35.6z"/>
		<path id="Shape 2 copy 121" fill-rule="evenodd" class="s2" d="m344 433v35.6h-35.7v-35.6z"/>
		<path id="Shape 2 copy 35" fill-rule="evenodd" class="s1" d="m415 433v35.6h-35.6v-35.6z"/>
		<path id="Shape 2 copy 36" fill-rule="evenodd" class="s3" d="m450.6 468.6v35.7h-35.6v-35.7z"/>
		<path id="Shape 2 copy 37" fill-rule="evenodd" class="s1" d="m379.4 468.6v35.7h-35.6v-35.7z"/>
		<path id="Shape 2 copy 38" fill-rule="evenodd" class="s1" d="m415 468.6v35.7h-35.6v-35.7z"/>
		<path id="Shape 2 copy 138" fill-rule="evenodd" class="s0" d="m415 504.3v35.6h-35.6v-35.6z"/>
		<path id="Shape 2 copy 39" fill-rule="evenodd" class="s3" d="m415 504.3v35.6h-35.6v-35.6z"/>
		<path id="Shape 2 copy 40" fill-rule="evenodd" class="s1" d="m343.8 504.3v35.6h-35.7v-35.6z"/>
		<path id="Shape 2 copy 73" fill-rule="evenodd" class="s2" d="m343.8 468.6v35.7h-35.7v-35.7z"/>
		<path id="Shape 2 copy 120" fill-rule="evenodd" class="s3" d="m343.8 468.6v35.7h-35.7v-35.7z"/>
		<path id="Shape 2 copy 41" fill-rule="evenodd" class="s1" d="m379.4 504.3v35.6h-35.6v-35.6z"/>
		<path id="Shape 2 copy 46" fill-rule="evenodd" class="s1" d="m415 611.1v35.7h-35.6v-35.7z"/>
		<path id="Shape 2 copy 47" fill-rule="evenodd" class="s1" d="m343.8 611.1v35.7h-35.7v-35.7z"/>
		<path id="Shape 2 copy 48" fill-rule="evenodd" class="s1" d="m379.4 611.1v35.7h-35.6v-35.7z"/>
		<path id="Shape 2 copy 42" fill-rule="evenodd" class="s1" d="m343.8 539.9v35.6h-35.7v-35.6z"/>
		<path id="Shape 2 copy 43" fill-rule="evenodd" class="s3" d="m379.4 539.9v35.6h-35.6v-35.6z"/>
		<path id="Shape 2 copy 44" fill-rule="evenodd" class="s1" d="m343.8 575.5v35.6h-35.7v-35.6z"/>
		<path id="Shape 2 copy 45" fill-rule="evenodd" class="s3" d="m379.4 575.5v35.6h-35.6v-35.6z"/>
		<path id="Shape 2 copy 19" fill-rule="evenodd" class="s1" d="m308.1 326.1v35.7h-35.6v-35.7z"/>
		<path id="Shape 2 copy 20" fill-rule="evenodd" class="s1" d="m236.9 326.1v35.7h-35.6v-35.7z"/>
		<path id="Shape 2 copy 25" fill-rule="evenodd" class="s1" d="m201.3 361.8v35.6h-35.7v-35.6z"/>
		<path id="Shape 2 copy 76" fill-rule="evenodd" class="s2" d="m236.7 361.8v35.6h-35.7v-35.6z"/>
		<path id="Shape 2 copy 77" fill-rule="evenodd" class="s2" d="m272.1 361.8v35.6h-35.6v-35.6z"/>
		<path id="Shape 2 copy 78" fill-rule="evenodd" class="s2" d="m308.3 361.8v35.6h-35.6v-35.6z"/>
		<path id="Shape 2 copy 79" fill-rule="evenodd" class="s2" d="m305 361.8v35.6h-35.6v-35.6z"/>
		<path id="Shape 2 copy 80" fill-rule="evenodd" class="s2" d="m236.7 396.4v35.6h-35.7v-35.6z"/>
		<path id="Shape 2 copy 81" fill-rule="evenodd" class="s2" d="m272.1 396.4v35.6h-35.6v-35.6z"/>
		<path id="Shape 2 copy 98" fill-rule="evenodd" class="s2" d="m308.3 396.4v35.6h-35.6v-35.6z"/>
		<path id="Shape 2 copy 99" fill-rule="evenodd" class="s2" d="m305 396.4v35.6h-35.6v-35.6z"/>
		<path id="Shape 2 copy 100" fill-rule="evenodd" class="s2" d="m236.7 431.8v35.6h-35.7v-35.6z"/>
		<path id="Shape 2 copy 101" fill-rule="evenodd" class="s2" d="m272.1 431.8v35.6h-35.6v-35.6z"/>
		<path id="Shape 2 copy 102" fill-rule="evenodd" class="s2" d="m308.3 431.8v35.6h-35.6v-35.6z"/>
		<path id="Shape 2 copy 103" fill-rule="evenodd" class="s2" d="m305 431.8v35.6h-35.6v-35.6z"/>
		<path id="Shape 2 copy 26" fill-rule="evenodd" class="s1" d="m201.3 504.3v35.6h-35.7v-35.6z"/>
		<path id="Shape 2 copy 68" fill-rule="evenodd" class="s3" d="m201.3 468.6v35.7h-35.7v-35.7z"/>
		<path id="Shape 2 copy 21" fill-rule="evenodd" class="s1" d="m272.5 326.1v35.7h-35.6v-35.7z"/>
		<path id="Shape 2 copy 70" fill-rule="evenodd" class="s1" d="m308.1 326.1v35.7h-35.6v-35.7z"/>
		<path id="Shape 2 copy 74" fill-rule="evenodd" class="s1" d="m236.9 326.1v35.7h-35.6v-35.7z"/>
		<path id="Shape 2 copy 75" fill-rule="evenodd" class="s1" d="m272.5 326.1v35.7h-35.6v-35.7z"/>
		<path id="Shape 2 copy 27" fill-rule="evenodd" class="s1" d="m308.1 539.9v35.6h-35.6v-35.6z"/>
		<path id="Shape 2 copy 28" fill-rule="evenodd" class="s1" d="m236.9 539.9v35.6h-35.6v-35.6z"/>
		<path id="Shape 2 copy 29" fill-rule="evenodd" class="s1" d="m272.5 539.9v35.6h-35.6v-35.6z"/>
		<path id="Shape 2 copy 69" fill-rule="evenodd" class="s2" d="m308.1 504.3v35.6h-35.6v-35.6z"/>
		<path id="Shape 2 copy 71" fill-rule="evenodd" class="s2" d="m236.9 504.3v35.6h-35.6v-35.6z"/>
		<path id="Shape 2 copy 72" fill-rule="evenodd" class="s2" d="m272.6 504.3l-0.2 35.7-35.6-0.2 0.2-35.6z"/>
		<path id="Shape 2 copy 117" fill-rule="evenodd" class="s3" d="m308.1 504.3v35.6h-35.6v-35.6z"/>
		<path id="Shape 2 copy 118" fill-rule="evenodd" class="s3" d="m236.9 504.3v35.6h-35.6v-35.6z"/>
		<path id="Shape 2 copy 119" fill-rule="evenodd" class="s3" d="m272.6 504.3l-0.2 35.7-35.6-0.2 0.2-35.6z"/>
		<path id="Shape 1" fill-rule="evenodd" class="s1" d="m486.3 183.6v35.7h-35.7v-35.7z"/>
		<path id="Shape 2 copy 104" fill-rule="evenodd" class="s2" d="m236.7 467.2v35.6h-35.7v-35.6z"/>
		<path id="Shape 2 copy 105" fill-rule="evenodd" class="s2" d="m272.1 467.2v35.6h-35.6v-35.6z"/>
		<path id="Shape 2 copy 108" fill-rule="evenodd" class="s2" d="m236.7 468.6v35.7h-35.7v-35.7z"/>
		<path id="Shape 2 copy 109" fill-rule="evenodd" class="s2" d="m272.1 468.6v35.7h-35.6v-35.7z"/>
		<path id="Shape 2 copy 110" fill-rule="evenodd" class="s2" d="m272.1 468.6v35.7h-35.6v-35.7z"/>
		<path id="Shape 2 copy 112" fill-rule="evenodd" class="s2" d="m274.6 468.6v35.7h-35.7v-35.7z"/>
		<path id="Shape 2 copy 111" fill-rule="evenodd" class="s2" d="m308.3 468.6v35.7h-35.6v-35.7z"/>
		<path id="Shape 2 copy 106" fill-rule="evenodd" class="s2" d="m308.3 467.2v35.6h-35.6v-35.6z"/>
		<path id="Shape 2 copy 107" fill-rule="evenodd" class="s2" d="m305 467.2v35.6h-35.6v-35.6z"/>
	</g>
	<g id="Bee Black - right">
		<path id="Shape 2 copy 10" fill-rule="evenodd" class="s1" d="m629 219.3v35.6h-35.7v-35.6z"/>
		<path id="Shape 2 copy 11" fill-rule="evenodd" class="s1" d="m593.3 219.3v35.6h-35.6v-35.6z"/>
		<path id="Shape 2 copy 66" fill-rule="evenodd" class="s1" d="m557.7 219.3v35.6h-35.6v-35.6z"/>
		<path id="Shape 2 copy 2" fill-rule="evenodd" class="s1" d="m700.2 148v35.6h-35.6v-35.6z"/>
		<path id="Shape 2 copy 3" fill-rule="evenodd" class="s1" d="m664.6 148v35.6h-35.6v-35.6z"/>
		<path id="Shape 2 copy 6" fill-rule="evenodd" class="s1" d="m700.2 290.5v35.6h-35.6v-35.6z"/>
		<path id="Shape 2 copy 7" fill-rule="evenodd" class="s1" d="m664.6 290.5v35.6h-35.6v-35.6z"/>
		<path id="Shape 2 copy 8" fill-rule="evenodd" class="s1" d="m664.6 254.9v35.6h-35.6v-35.6z"/>
		<path id="Shape 2 copy 12" fill-rule="evenodd" class="s1" d="m700.2 361.8v35.6h-35.6v-35.6z"/>
		<path id="Shape 2 copy 13" fill-rule="evenodd" class="s1" d="m700.2 326.1v35.7h-35.6v-35.7z"/>
		<path id="Shape 2 copy 22" fill-rule="evenodd" class="s1" d="m949.6 397.4v35.6h-35.6v-35.6z"/>
		<path id="Shape 2 copy 23" fill-rule="evenodd" class="s1" d="m949.6 468.6v35.7h-35.6v-35.7z"/>
		<path id="Shape 2 copy 24" fill-rule="evenodd" class="s1" d="m949.6 433v35.6h-35.6v-35.6z"/>
		<path id="Shape 2 copy 113" fill-rule="evenodd" class="s2" d="m914.2 397.4v35.6h-35.6v-35.6z"/>
		<path id="Shape 2 copy 114" fill-rule="evenodd" class="s2" d="m914.2 433v35.6h-35.6v-35.6z"/>
		<path id="Shape 2 copy 115" fill-rule="evenodd" class="s2" d="m914.2 433v35.6h-35.6v-35.6z"/>
		<path id="Shape 2 copy 9" fill-rule="evenodd" class="s1" d="m629 254.9v35.6h-35.7v-35.6z"/>
		<path id="Shape 2 copy 14" fill-rule="evenodd" class="s1" d="m771.5 361.8v35.6h-35.7v-35.6z"/>
		<path id="Shape 2 copy 15" fill-rule="evenodd" class="s1" d="m735.8 361.8v35.6h-35.6v-35.6z"/>
		<path id="Shape 2 copy 122" fill-rule="evenodd" class="s1" d="m771.5 361.8v35.6h-35.7v-35.6z"/>
		<path id="Shape 2 copy 123" fill-rule="evenodd" class="s1" d="m735.8 361.8v35.6h-35.6v-35.6z"/>
		<path id="Shape 2 copy 125" fill-rule="evenodd" class="s2" d="m771.5 397.2v35.6h-35.7v-35.6z"/>
		<path id="Shape 2 copy 126" fill-rule="evenodd" class="s2" d="m735.8 397.2v35.6h-35.6v-35.6z"/>
		<path id="Shape 2 copy 127" fill-rule="evenodd" class="s2" d="m771.5 398v35.6h-35.7v-35.6z"/>
		<path id="Shape 2 copy 128" fill-rule="evenodd" class="s2" d="m735.8 398v35.6h-35.6v-35.6z"/>
		<path id="Shape 2 copy 16" fill-rule="evenodd" class="s1" d="m629 397.4v35.6h-35.7v-35.6z"/>
		<path id="Shape 2 copy 31" fill-rule="evenodd" class="s1" d="m593.3 397.4v35.6h-35.6v-35.6z"/>
		<path id="Shape 2 copy 67" fill-rule="evenodd" class="s1" d="m557.7 397.4v35.6h-35.6v-35.6z"/>
		<path id="Shape 2 copy 140" fill-rule="evenodd" class="s1" d="m557.7 503.6v35.7h-35.6v-35.7z"/>
		<path id="Shape 2 copy 141" fill-rule="evenodd" class="s1" d="m557.7 539.1v35.6h-35.6v-35.6z"/>
		<path id="Shape 2 copy 144" fill-rule="evenodd" class="s1" d="m628.6 574.7v35.6h-35.7v-35.6z"/>
		<path id="Shape 2 copy 145" fill-rule="evenodd" class="s1" d="m593.1 574.7v35.6h-35.6v-35.6z"/>
		<path id="Shape 2 copy 142" fill-rule="evenodd" class="s1" d="m557.7 574.5v35.6h-35.6v-35.6z"/>
		<path id="Shape 2 copy 30" fill-rule="evenodd" class="s3" d="m664.6 361.8v35.6h-35.6v-35.6z"/>
		<path id="Shape 2 copy 17" fill-rule="evenodd" class="s1" d="m700.2 397.4v35.6h-35.6v-35.6z"/>
		<path id="Shape 2 copy 18" fill-rule="evenodd" class="s1" d="m664.6 397.4v35.6h-35.6v-35.6z"/>
		<path id="Shape 2 copy 49" fill-rule="evenodd" class="s1" d="m700.2 646.8v35.6h-35.6v-35.6z"/>
		<path id="Shape 2 copy 50" fill-rule="evenodd" class="s1" d="m664.6 646.8v35.6h-35.6v-35.6z"/>
		<path id="Shape 2 copy 55" fill-rule="evenodd" class="s1" d="m629 682.4v35.6h-35.7v-35.6z"/>
		<path id="Shape 2 copy 51" fill-rule="evenodd" class="s1" d="m771.5 646.8v35.6h-35.7v-35.6z"/>
		<path id="Shape 2 copy 52" fill-rule="evenodd" class="s1" d="m735.8 646.8v35.6h-35.6v-35.6z"/>
		<path id="Shape 2 copy 58" fill-rule="evenodd" class="s1" d="m664.6 753.6v35.7h-35.6v-35.7z"/>
		<path id="Shape 2 copy 59" fill-rule="evenodd" class="s1" d="m629 753.6v35.7h-35.7v-35.7z"/>
		<path id="Shape 2 copy 116" fill-rule="evenodd" class="s2" d="m914 468.6v35.7h-35.7v-35.7z"/>
		<path id="Shape 2 copy 62" fill-rule="evenodd" class="s1" d="m593.3 753.6v35.7h-35.6v-35.7z"/>
		<path id="Shape 2 copy 63" fill-rule="evenodd" class="s1" d="m557.7 753.6v35.7h-35.6v-35.7z"/>
		<path id="Shape 2 copy 64" fill-rule="evenodd" class="s1" d="m593.3 718v35.6h-35.6v-35.6z"/>
		<path id="Shape 2 copy 65" fill-rule="evenodd" class="s1" d="m557.7 718v35.6h-35.6v-35.6z"/>
		<path id="Shape 2 copy 60" fill-rule="evenodd" class="s1" d="m735.8 753.6v35.7h-35.6v-35.7z"/>
		<path id="Shape 2 copy 61" fill-rule="evenodd" class="s1" d="m700.2 753.6v35.7h-35.6v-35.7z"/>
		<path id="Shape 2 copy 129" fill-rule="evenodd" class="s0" d="m521.9 788.7v35.6h-35.6v-35.6z"/>
		<path id="Shape 2 copy 130" fill-rule="evenodd" class="s0" d="m593.3 788.7v35.6h-35.6v-35.6z"/>
		<path id="Shape 2 copy 131" fill-rule="evenodd" class="s0" d="m557.7 788.7v35.6h-35.6v-35.6z"/>
		<path id="Shape 2 copy 132" fill-rule="evenodd" class="s0" d="m556.9 788.7v35.6h-35.6v-35.6z"/>
		<path id="Shape 2 copy 88" fill-rule="evenodd" class="s1" d="m664.6 788.9v35.6h-35.6v-35.6z"/>
		<path id="Shape 2 copy 89" fill-rule="evenodd" class="s0" d="m629 788.9v35.6h-35.7v-35.6z"/>
		<path id="Shape 2 copy 134" fill-rule="evenodd" class="s3" d="m629 788.9v35.6h-35.7v-35.6z"/>
		<path id="Shape 2 copy 90" fill-rule="evenodd" class="s1" d="m700.2 788.9v35.6h-35.6v-35.6z"/>
		<path id="Shape 2 copy 91" fill-rule="evenodd" class="s1" d="m629 824.5v35.6h-35.7v-35.6z"/>
		<path id="Shape 2 copy 92" fill-rule="evenodd" class="s1" d="m593.3 824.5v35.6h-35.6v-35.6z"/>
		<path id="Shape 2 copy 94" fill-rule="evenodd" class="s1" d="m557.7 824.5v35.6h-35.6v-35.6z"/>
		<path id="Shape 2 copy 95" fill-rule="evenodd" class="s1" d="m593.3 860.1v35.7h-35.6v-35.7z"/>
		<path id="Shape 2 copy 96" fill-rule="evenodd" class="s1" d="m557.7 860.1v35.7h-35.6v-35.7z"/>
		<path id="Shape 2 copy 97" fill-rule="evenodd" class="s1" d="m557.7 895.8v35.6h-35.6v-35.6z"/>
		<path id="Shape 2 copy 93" fill-rule="evenodd" class="s1" d="m664.6 824.5v35.6h-35.6v-35.6z"/>
		<path id="Shape 2 copy 53" fill-rule="evenodd" class="s1" d="m771.5 682.4v35.6h-35.7v-35.6z"/>
		<path id="Shape 2 copy 54" fill-rule="evenodd" class="s3" d="m735.8 682.4v35.6h-35.6v-35.6z"/>
		<path id="Shape 2 copy 56" fill-rule="evenodd" class="s1" d="m735.9 718.1l-0.1 35.6-35.6-0.1 0.1-35.6z"/>
		<path id="Shape 2 copy 57" fill-rule="evenodd" class="s3" d="m700.2 718v35.6h-35.6v-35.6z"/>
		<path id="Shape 2 copy 32" fill-rule="evenodd" class="s1" d="m664.6 433v35.6h-35.6v-35.6z"/>
		<path id="Shape 2 copy 33" fill-rule="evenodd" class="s1" d="m629 433v35.6h-35.7v-35.6z"/>
		<path id="Shape 2 copy 34" fill-rule="evenodd" class="s1" d="m735.8 433v35.6h-35.6v-35.6z"/>
		<path id="Shape 2 copy 124" fill-rule="evenodd" class="s1" d="m735.8 433v35.6h-35.6v-35.6z"/>
		<path id="Shape 2 copy 121" fill-rule="evenodd" class="s2" d="m771.3 433v35.6h-35.7v-35.6z"/>
		<path id="Shape 2 copy 35" fill-rule="evenodd" class="s1" d="m700.2 433v35.6h-35.6v-35.6z"/>
		<path id="Shape 2 copy 36" fill-rule="evenodd" class="s3" d="m664.6 468.6v35.7h-35.6v-35.7z"/>
		<path id="Shape 2 copy 37" fill-rule="evenodd" class="s1" d="m735.8 468.6v35.7h-35.6v-35.7z"/>
		<path id="Shape 2 copy 38" fill-rule="evenodd" class="s1" d="m700.2 468.6v35.7h-35.6v-35.7z"/>
		<path id="Shape 2 copy 39" fill-rule="evenodd" class="s3" d="m700.2 504.3v35.6h-35.6v-35.6z"/>
		<path id="Shape 2 copy 40" fill-rule="evenodd" class="s1" d="m771.5 504.3v35.6h-35.7v-35.6z"/>
		<path id="Shape 2 copy 73" fill-rule="evenodd" class="s2" d="m771.5 468.6v35.7h-35.7v-35.7z"/>
		<path id="Shape 2 copy 120" fill-rule="evenodd" class="s3" d="m771.5 468.6v35.7h-35.7v-35.7z"/>
		<path id="Shape 2 copy 41" fill-rule="evenodd" class="s1" d="m735.8 504.3v35.6h-35.6v-35.6z"/>
		<path id="Shape 2 copy 46" fill-rule="evenodd" class="s1" d="m700.2 611.1v35.7h-35.6v-35.7z"/>
		<path id="Shape 2 copy 47" fill-rule="evenodd" class="s1" d="m771.5 611.1v35.7h-35.7v-35.7z"/>
		<path id="Shape 2 copy 48" fill-rule="evenodd" class="s1" d="m735.8 611.1v35.7h-35.6v-35.7z"/>
		<path id="Shape 2 copy 42" fill-rule="evenodd" class="s1" d="m771.5 539.9v35.6h-35.7v-35.6z"/>
		<path id="Shape 2 copy 43" fill-rule="evenodd" class="s3" d="m735.8 539.9v35.6h-35.6v-35.6z"/>
		<path id="Shape 2 copy 44" fill-rule="evenodd" class="s1" d="m771.5 575.5v35.6h-35.7v-35.6z"/>
		<path id="Shape 2 copy 45" fill-rule="evenodd" class="s3" d="m735.8 575.5v35.6h-35.6v-35.6z"/>
		<path id="Shape 2 copy 19" fill-rule="evenodd" class="s1" d="m807.1 326.1v35.7h-35.6v-35.7z"/>
		<path id="Shape 2 copy 20" fill-rule="evenodd" class="s1" d="m878.3 326.1v35.7h-35.6v-35.7z"/>
		<path id="Shape 2 copy 25" fill-rule="evenodd" class="s1" d="m914 361.8v35.6h-35.7v-35.6z"/>
		<path id="Shape 2 copy 76" fill-rule="evenodd" class="s2" d="m878.6 361.8v35.6h-35.7v-35.6z"/>
		<path id="Shape 2 copy 77" fill-rule="evenodd" class="s2" d="m843.1 361.8v35.6h-35.6v-35.6z"/>
		<path id="Shape 2 copy 78" fill-rule="evenodd" class="s2" d="m806.9 361.8v35.6h-35.6v-35.6z"/>
		<path id="Shape 2 copy 79" fill-rule="evenodd" class="s2" d="m810.2 361.8v35.6h-35.6v-35.6z"/>
		<path id="Shape 2 copy 80" fill-rule="evenodd" class="s2" d="m878.6 396.4v35.6h-35.7v-35.6z"/>
		<path id="Shape 2 copy 81" fill-rule="evenodd" class="s2" d="m843.1 396.4v35.6h-35.6v-35.6z"/>
		<path id="Shape 2 copy 98" fill-rule="evenodd" class="s2" d="m806.9 396.4v35.6h-35.6v-35.6z"/>
		<path id="Shape 2 copy 99" fill-rule="evenodd" class="s2" d="m810.2 396.4v35.6h-35.6v-35.6z"/>
		<path id="Shape 2 copy 100" fill-rule="evenodd" class="s2" d="m878.6 431.8v35.6h-35.7v-35.6z"/>
		<path id="Shape 2 copy 101" fill-rule="evenodd" class="s2" d="m843.1 431.8v35.6h-35.6v-35.6z"/>
		<path id="Shape 2 copy 102" fill-rule="evenodd" class="s2" d="m806.9 431.8v35.6h-35.6v-35.6z"/>
		<path id="Shape 2 copy 103" fill-rule="evenodd" class="s2" d="m810.2 431.8v35.6h-35.6v-35.6z"/>
		<path id="Shape 2 copy 26" fill-rule="evenodd" class="s1" d="m914 504.3v35.6h-35.7v-35.6z"/>
		<path id="Shape 2 copy 68" fill-rule="evenodd" class="s3" d="m914 468.6v35.7h-35.7v-35.7z"/>
		<path id="Shape 2 copy 21" fill-rule="evenodd" class="s1" d="m842.7 326.1v35.7h-35.6v-35.7z"/>
		<path id="Shape 2 copy 70" fill-rule="evenodd" class="s1" d="m807.1 326.1v35.7h-35.6v-35.7z"/>
		<path id="Shape 2 copy 74" fill-rule="evenodd" class="s1" d="m878.3 326.1v35.7h-35.6v-35.7z"/>
		<path id="Shape 2 copy 75" fill-rule="evenodd" class="s1" d="m842.7 326.1v35.7h-35.6v-35.7z"/>
		<path id="Shape 2 copy 27" fill-rule="evenodd" class="s1" d="m807.1 539.9v35.6h-35.6v-35.6z"/>
		<path id="Shape 2 copy 28" fill-rule="evenodd" class="s1" d="m878.3 539.9v35.6h-35.6v-35.6z"/>
		<path id="Shape 2 copy 29" fill-rule="evenodd" class="s1" d="m842.7 539.9v35.6h-35.6v-35.6z"/>
		<path id="Shape 2 copy 69" fill-rule="evenodd" class="s2" d="m807.1 504.3v35.6h-35.6v-35.6z"/>
		<path id="Shape 2 copy 71" fill-rule="evenodd" class="s2" d="m878.3 504.3v35.6h-35.6v-35.6z"/>
		<path id="Shape 2 copy 72" fill-rule="evenodd" class="s2" d="m842.8 504.3l-0.2 35.7-35.6-0.2 0.2-35.6z"/>
		<path id="Shape 2 copy 117" fill-rule="evenodd" class="s3" d="m807.1 504.3v35.6h-35.6v-35.6z"/>
		<path id="Shape 2 copy 118" fill-rule="evenodd" class="s3" d="m878.3 504.3v35.6h-35.6v-35.6z"/>
		<path id="Shape 2 copy 119" fill-rule="evenodd" class="s3" d="m842.8 504.3l-0.2 35.7-35.6-0.2 0.2-35.6z"/>
		<path id="Shape 1" fill-rule="evenodd" class="s1" d="m629 183.6v35.7h-35.7v-35.7z"/>
		<path id="Shape 2 copy 104" fill-rule="evenodd" class="s2" d="m878.6 467.2v35.6h-35.7v-35.6z"/>
		<path id="Shape 2 copy 105" fill-rule="evenodd" class="s2" d="m843.1 467.2v35.6h-35.6v-35.6z"/>
		<path id="Shape 2 copy 108" fill-rule="evenodd" class="s2" d="m878.6 468.6v35.7h-35.7v-35.7z"/>
		<path id="Shape 2 copy 109" fill-rule="evenodd" class="s2" d="m843.1 468.6v35.7h-35.6v-35.7z"/>
		<path id="Shape 2 copy 110" fill-rule="evenodd" class="s2" d="m843.1 468.6v35.7h-35.6v-35.7z"/>
		<path id="Shape 2 copy 112" fill-rule="evenodd" class="s2" d="m840.7 468.6v35.7h-35.7v-35.7z"/>
		<path id="Shape 2 copy 111" fill-rule="evenodd" class="s2" d="m806.9 468.6v35.7h-35.6v-35.7z"/>
		<path id="Shape 2 copy 106" fill-rule="evenodd" class="s2" d="m806.9 467.2v35.6h-35.6v-35.6z"/>
		<path id="Shape 6" fill-rule="evenodd" class="s2" d="m810.2 467.2v35.6h-35.6v-35.6z"/>
	</g>
</svg>